<svg xmlns="http://www.w3.org/2000/svg" xmlns:xlink="http://www.w3.org/1999/xlink" id="Layer_1" x="0" y="0" version="1.1" viewBox="0 0 2048 2048" xml:space="preserve" style="enable-background:new 0 0 2048 2048"><g><path d="M640.5,308.7v285h1155.2v-285H640.5z M837.1,497.2h-98v-98h98V497.2z M1028.2,497.2h-98v-98h98V497.2z M1217.4,497.2h-98v-98h98V497.2z"/><rect width="1155.2" height="673.2" x="640.5" y="689.4"/><polygon points="566.5 499 450.2 499 450.2 1429.6 450.2 1458.3 450.2 1553 1605.4 1553 1605.4 1429.6 566.5 1429.6"/><polygon points="373.3 685.4 257 685.4 257 1616 257 1644.6 257 1739.3 1412.2 1739.3 1412.2 1616 373.3 1616"/></g></svg>