<svg xmlns="http://www.w3.org/2000/svg" viewBox="0 0 872.64 320.29"><defs><style>.a{fill:#fff;stroke:#e0e0e5}.b{fill:none;stroke:#c6c6c6;stroke-miterlimit:10}.c{fill:#d8d8d8}.d{fill:#ddd}.e{fill:#ededed}</style></defs><title>AP-401-page-analyticsv-4</title><rect width="786.51" height="249.35" x="43.79" y="50.8" class="a"/><line x1="44.32" x2="827.32" y1="86.29" y2="86.29" class="b"/><line x1="44.32" x2="833.32" y1="128.29" y2="128.29" class="b"/><line x1="44.32" x2="833.32" y1="172.29" y2="172.29" class="b"/><line x1="44.32" x2="833.32" y1="215.29" y2="215.29" class="b"/><line x1="44.32" x2="833.32" y1="258.29" y2="258.29" class="b"/><rect width="111.62" height="9.58" x="363.88" y="64.31" class="c"/><rect width="111.62" height="9.58" x="69.23" y="64.31" class="c"/><rect width="84.6" height="9.75" x="74.54" y="102.5" class="d"/><rect width="95.8" height="9.75" x="198.94" y="102.5" class="d"/><rect width="76.75" height="9.58" x="369.44" y="102.5" class="d"/><rect width="76.75" height="9.58" x="496.26" y="102.5" class="d"/><rect width="71.79" height="9.58" x="617.35" y="102.5" class="d"/><rect width="68.66" height="9.58" x="730.47" y="102.5" class="d"/><rect width="65.73" height="9.58" x="74.54" y="145.5" class="e"/><rect width="72.58" height="9.58" x="198.94" y="145.5" class="e"/><rect width="39.38" height="9.58" x="369.44" y="145.5" class="e"/><rect width="66.84" height="9.58" x="496.26" y="145.5" class="e"/><rect width="32.32" height="9.58" x="617.35" y="145.5" class="e"/><rect width="54.58" height="9.58" x="730.47" y="145.5" class="e"/><rect width="76.75" height="9.58" x="74.54" y="189" class="e"/><rect width="76.75" height="9.58" x="198.94" y="189" class="e"/><rect width="51.09" height="9.58" x="369.44" y="189" class="e"/><rect width="58.67" height="9.58" x="496.26" y="189" class="e"/><rect width="35.89" height="9.58" x="617.35" y="189" class="e"/><rect width="60.66" height="9.58" x="730.47" y="189" class="e"/><rect width="63.24" height="9.58" x="74.54" y="232" class="e"/><rect width="61.42" height="9.58" x="198.94" y="232" class="e"/><rect width="37.32" height="9.58" x="369.44" y="232" class="e"/><rect width="66.84" height="9.58" x="496.26" y="232" class="e"/><rect width="29.37" height="9.58" x="617.35" y="232" class="e"/><rect width="45.92" height="9.58" x="730.47" y="232" class="e"/><rect width="72.58" height="9.58" x="198.94" y="275.6" class="c"/><rect width="67.43" height="9.58" x="369.44" y="275.6" class="c"/><rect width="72.28" height="9.58" x="496.26" y="275.6" class="c"/><rect width="47.57" height="9.58" x="617.35" y="275.6" class="c"/><rect width="70.71" height="9.58" x="730.47" y="275.6" class="c"/><line x1="334.32" x2="334.32" y1="50.8" y2="300.29" class="b"/><rect width="111.62" height="9.58" x="719.58" y="20" class="c"/></svg>