<svg xmlns="http://www.w3.org/2000/svg" xmlns:xlink="http://www.w3.org/1999/xlink" id="Layer_1" x="0" y="0" version="1.1" viewBox="0 0 2048 2048" xml:space="preserve" style="enable-background:new 0 0 2048 2048"><style type="text/css">.st0{fill:#4e4e4e}</style><g><rect width="7.1" height="7.1" x="2266.8" y="1858.7" class="st0"/><rect width="7.1" height="1.9" x="2276.7" y="1858.7" class="st0"/><rect width="7.1" height="7.1" x="2266.8" y="1868.6" class="st0"/><rect width="7.1" height="1.9" x="2276.7" y="1862.2" class="st0"/><rect width="7.1" height="1.9" x="2276.7" y="1868.6" class="st0"/><rect width="7.1" height="1.9" x="2276.7" y="1872.2" class="st0"/></g><g><path d="M1270.8,258.8H380.2v1533.1h1287.6V634.6L1270.8,258.8z M1327.7,444.7L1445,561.9h-117.3V444.7z M1539.2,1665.7h-1020 V372.3h704.1v293.9h315.9V1665.7z"/><polygon points="1090.2 713.6 952.9 713.6 953 986.7 682 986.7 682 1121.7 953 1121.7 953 1393.7 1090.2 1393.7 1090.2 1121.7 1360 1121.7 1360 986.7 1090.2 986.7"/></g></svg>