<svg xmlns="http://www.w3.org/2000/svg" xmlns:xlink="http://www.w3.org/1999/xlink" id="Layer_1" x="0" y="0" version="1.1" viewBox="0 0 2048 2048" xml:space="preserve" style="enable-background:new 0 0 2048 2048"><g><path d="M1024,254.5c-424.9,0-769.3,344.4-769.3,769.3S599.1,1793,1024,1793s769.3-344.4,769.3-769.3S1448.9,254.5,1024,254.5z M1024,1625.5c-332.3,0-601.7-269.4-601.7-601.7S691.7,422,1024,422c332.3,0,601.7,269.4,601.7,601.7S1356.3,1625.5,1024,1625.5z"/><polygon points="1063 584.9 947 584.9 947 1027.7 947 1141.4 947 1143.7 1358.4 1143.7 1358.4 1027.7 1063 1027.7"/><rect width="1024.9" height="120" x="511.1" y="59.4"/></g></svg>